<svg width="64" height="64" viewBox="0 0 64 64" fill="none" xmlns="http://www.w3.org/2000/svg">
<path d="M32 0C34.9375 0 37.7708 0.375 40.5 1.125C43.2292 1.875 45.7708 2.95833 48.125 4.375C50.4792 5.79167 52.6354 7.45833 54.5938 9.375C56.5521 11.2917 58.2292 13.4479 59.625 15.8438C61.0208 18.2396 62.0938 20.7917 62.8438 23.5C63.5938 26.2083 63.9792 29.0417 64 32C64 34.9375 63.625 37.7708 62.875 40.5C62.125 43.2292 61.0417 45.7708 59.625 48.125C58.2083 50.4792 56.5417 52.6354 54.625 54.5938C52.7083 56.5521 50.5521 58.2292 48.1562 59.625C45.7604 61.0208 43.2083 62.0938 40.5 62.8438C37.7917 63.5938 34.9583 63.9792 32 64C29.0625 64 26.2292 63.625 23.5 62.875C20.7708 62.125 18.2292 61.0417 15.875 59.625C13.5208 58.2083 11.3646 56.5417 9.40625 54.625C7.44792 52.7083 5.77083 50.5521 4.375 48.1562C2.97917 45.7604 1.90625 43.2083 1.15625 40.5C0.40625 37.7917 0.0208333 34.9583 0 32C0 29.0625 0.375 26.2292 1.125 23.5C1.875 20.7708 2.95833 18.2292 4.375 15.875C5.79167 13.5208 7.45833 11.3646 9.375 9.40625C11.2917 7.44792 13.4479 5.77083 15.8438 4.375C18.2396 2.97917 20.7917 1.90625 23.5 1.15625C26.2083 0.40625 29.0417 0.0208333 32 0ZM28 20H24V44H28V20ZM40 20H36V44H40V20Z" fill="black"/>
</svg>
